<!DOCTYPE svg PUBLIC "-//W3C//DTD SVG 20010904//EN" "http://www.w3.org/TR/2001/REC-SVG-20010904/DTD/svg10.dtd">
<svg version="1.0" xmlns="http://www.w3.org/2000/svg" width="753px" height="201px" viewBox="0 0 7530 2010" preserveAspectRatio="xMidYMid meet">
<g id="layer1" fill="#f04f23" stroke="none">
 <path d="M2184 1995 c-146 -27 -282 -104 -409 -230 -177 -178 -255 -366 -255 -620 0 -252 84 -448 267 -627 178 -173 404 -258 653 -245 372 20 686 269 796 632 24 80 27 107 28 240 1 105 -3 157 -12 173 l-13 22 -624 0 c-344 0 -625 4 -625 8 0 18 64 104 103 138 56 49 153 93 232 107 125 21 285 -28 371 -113 l39 -39 233 -1 c182 0 234 3 238 13 13 36 -88 201 -184 300 -129 133 -275 216 -424 242 -101 18 -316 18 -414 0z m599 -1076 c-86 -147 -239 -226 -421 -217 -79 4 -100 9 -164 40 -76 38 -144 97 -184 160 -13 21 -24 40 -24 43 0 3 183 5 406 5 l405 0 -18 -31z"/>
 <path d="M3965 1995 c-206 -38 -428 -201 -547 -401 -174 -293 -160 -674 36 -947 136 -192 343 -324 567 -363 474 -83 931 238 1014 711 12 70 15 180 15 541 l0 454 -190 0 -189 0 -3 -70 -3 -70 -50 36 c-74 54 -181 100 -262 113 -93 14 -298 12 -388 -4z m297 -406 c135 -28 253 -121 314 -245 33 -66 38 -84 42 -172 3 -81 1 -107 -17 -161 -71 -208 -235 -319 -456 -309 -82 3 -101 8 -167 41 -125 61 -209 162 -243 292 -83 319 205 622 527 554z"/>
 <path d="M6465 1995 c-150 -28 -293 -109 -420 -239 -296 -304 -334 -768 -90 -1111 56 -79 185 -201 261 -247 244 -149 557 -167 819 -49 239 108 436 346 480 579 20 103 20 348 0 444 -61 291 -348 572 -638 623 -100 18 -316 18 -412 0z m297 -406 c79 -17 151 -54 213 -111 208 -189 191 -519 -34 -690 -87 -67 -172 -92 -295 -86 -84 3 -102 8 -170 41 -378 187 -322 731 87 842 64 17 130 18 199 4z"/>
 <path d="M0 1448 c0 -588 3 -633 54 -743 83 -183 258 -339 451 -402 104 -34 283 -43 395 -19 210 44 419 210 514 409 71 148 70 132 74 745 l3 552 -215 0 -215 0 -3 -532 -3 -533 -24 -49 c-78 -159 -267 -225 -428 -152 -72 33 -133 93 -166 164 -22 46 -22 55 -25 575 l-3 527 -204 0 -205 0 0 -542z"/>
 <path d="M5560 1971 c-106 -34 -181 -82 -275 -176 -103 -103 -154 -187 -185 -311 -19 -73 -20 -113 -20 -781 l0 -703 210 0 210 0 0 155 0 154 158 3 157 3 0 190 0 190 -157 3 -158 3 0 317 c0 363 4 390 70 465 51 58 111 87 197 95 l68 7 3 203 2 202 -112 -1 c-79 0 -130 -5 -168 -18z"/>
 </g>

</svg>